<svg width="21" height="20" viewBox="0 0 21 20" fill="none" xmlns="http://www.w3.org/2000/svg">
<path fill-rule="evenodd" clip-rule="evenodd" d="M10.5 13.3346C10.3895 13.3346 10.284 13.2889 10.2084 13.2083L5.38335 8.38333C5.30447 8.3051 5.2601 8.1986 5.2601 8.0875C5.2601 7.9764 5.30447 7.8699 5.38335 7.79167L5.55002 7.625C5.62842 7.54362 5.73703 7.49836 5.85002 7.5H8.00002V2.91667C8.00002 2.68655 8.18657 2.5 8.41669 2.5H12.5834C12.8135 2.5 13 2.68655 13 2.91667V7.5H15.15C15.263 7.49836 15.3716 7.54362 15.45 7.625L15.6167 7.79167C15.6956 7.8699 15.7399 7.9764 15.7399 8.0875C15.7399 8.1986 15.6956 8.3051 15.6167 8.38333L10.7917 13.2083C10.7161 13.2889 10.6105 13.3346 10.5 13.3346ZM16.3334 16.25V15.4167C16.3334 15.1865 16.1468 15 15.9167 15H5.08335C4.85324 15 4.66669 15.1865 4.66669 15.4167V16.25C4.66669 16.4801 4.85324 16.6667 5.08335 16.6667H15.9167C16.1468 16.6667 16.3334 16.4801 16.3334 16.25Z" fill="white"/>
</svg>
