<svg width="21" height="20" viewBox="0 0 21 20" fill="none" xmlns="http://www.w3.org/2000/svg">
<path fill-rule="evenodd" clip-rule="evenodd" d="M16.3333 4.16667V5.83333C17.2538 5.83333 18 6.57953 18 7.5V12.0833C18 12.3135 17.8135 12.5 17.5833 12.5H16.3333V15.8333C16.3333 16.7538 15.5871 17.5 14.6667 17.5H6.33333C5.41286 17.5 4.66667 16.7538 4.66667 15.8333V12.5H3.41667C3.18655 12.5 3 12.3135 3 12.0833V7.5C3 6.57953 3.74619 5.83333 4.66667 5.83333V4.16667C4.66667 3.24619 5.41286 2.5 6.33333 2.5H14.6667C15.5871 2.5 16.3333 3.24619 16.3333 4.16667ZM14.6667 4.16667H6.33333V5.83333H14.6667V4.16667ZM14.6667 15.8333H6.33333V10.8333H14.6667V15.8333ZM15.9167 9.16667C16.1468 9.16667 16.3333 8.98012 16.3333 8.75V7.91667C16.3333 7.68655 16.1468 7.5 15.9167 7.5H15.0833C14.8532 7.5 14.6667 7.68655 14.6667 7.91667V8.75C14.6667 8.98012 14.8532 9.16667 15.0833 9.16667H15.9167Z" fill="white"/>
</svg>
