<svg width="24" height="24" viewBox="0 0 24 24" fill="none" xmlns="http://www.w3.org/2000/svg">
<path fill-rule="evenodd" clip-rule="evenodd" d="M17.59 3.59C17.2142 3.21196 16.703 2.99958 16.17 3H5C3.89543 3 3 3.89543 3 5V19C3 20.1046 3.89543 21 5 21H19C20.1046 21 21 20.1046 21 19V7.83C21.0004 7.29696 20.788 6.7858 20.41 6.41L17.59 3.59ZM9 16.5V15.5C9 15.2239 9.22386 15 9.5 15H14.5C14.7761 15 15 15.2239 15 15.5V16.5C15 16.7761 14.7761 17 14.5 17H9.5C9.22386 17 9 16.7761 9 16.5ZM17 19H19V7.83L16.17 5H15V6.5C15 6.77614 14.7761 7 14.5 7H9.5C9.22386 7 9 6.77614 9 6.5V5H5V19H7V11.5C7 11.2239 7.22386 11 7.5 11H16.5C16.7761 11 17 11.2239 17 11.5V19Z" fill="white"/>
</svg>
