<svg width="24" height="24" viewBox="0 0 24 24" fill="none" xmlns="http://www.w3.org/2000/svg">
<path fill-rule="evenodd" clip-rule="evenodd" d="M20.21 14.0741C19.7249 13.6707 19.4581 13.0617 19.49 12.4309V12V11.5691C19.4581 10.9383 19.7249 10.3293 20.21 9.92587L21.01 9.26455C21.3861 8.95336 21.4833 8.41563 21.24 7.99202L20.08 5.98803C19.9024 5.67987 19.5751 5.48918 19.22 5.48703C19.0996 5.48502 18.9803 5.50894 18.87 5.55717L17.87 5.91789C17.647 6.00535 17.4094 6.04955 17.17 6.04815C16.7867 6.04715 16.4119 5.93586 16.09 5.72751C15.8549 5.56478 15.6075 5.42072 15.35 5.29665C14.7873 5.0075 14.3942 4.46873 14.29 3.84376L14.12 2.84176C14.0407 2.35173 13.6153 1.9937 13.12 2.00008H10.82C10.3246 1.9937 9.89919 2.35173 9.81996 2.84176L9.64996 3.84376C9.55444 4.46084 9.1773 4.99804 8.62996 5.29665C8.37246 5.42072 8.12504 5.56478 7.88996 5.72751C7.56805 5.93586 7.19318 6.04715 6.80996 6.04815C6.5705 6.04955 6.33295 6.00535 6.10996 5.91789L5.10996 5.55717C4.99965 5.50894 4.88029 5.48502 4.75996 5.48703C4.40485 5.48918 4.07751 5.67987 3.89996 5.98803L2.75996 7.99202C2.51888 8.41797 2.62038 8.95612 2.99996 9.26455L3.79996 9.92587C4.28501 10.3293 4.55183 10.9383 4.51996 11.5691V12V12.4309C4.55183 13.0617 4.28501 13.6707 3.79996 14.0741L2.99996 14.7354C2.62038 15.0439 2.51888 15.582 2.75996 16.008L3.91996 18.012C4.09751 18.3201 4.42485 18.5108 4.77996 18.513C4.90029 18.515 5.01965 18.4911 5.12996 18.4428L6.12996 18.0821C6.35295 17.9947 6.5905 17.9504 6.82996 17.9519C7.21318 17.9528 7.58805 18.0641 7.90996 18.2725C8.14504 18.4352 8.39246 18.5793 8.64996 18.7034C9.21266 18.9925 9.60573 19.5313 9.70996 20.1562L9.87996 21.1582C9.95919 21.6483 10.3846 22.0063 10.88 21.9999H13.18C13.6754 22.0063 14.1007 21.6483 14.18 21.1582L14.35 20.1562C14.4542 19.5313 14.8473 18.9925 15.41 18.7034C15.6675 18.5793 15.9149 18.4352 16.15 18.2725C16.4719 18.0641 16.8467 17.9528 17.23 17.9519C17.4694 17.9504 17.707 17.9947 17.93 18.0821L18.93 18.4428C19.0403 18.4911 19.1596 18.515 19.28 18.513C19.6351 18.5108 19.9624 18.3201 20.14 18.012L21.3 16.008C21.528 15.5679 21.4005 15.0268 21 14.7354L20.21 14.0741ZM12 17.511C8.96239 17.511 6.49996 15.0436 6.49996 12C6.49996 8.95637 8.96239 6.48902 12 6.48902C15.0375 6.48902 17.5 8.95637 17.5 12C17.5 13.4616 16.9205 14.8633 15.889 15.8968C14.8576 16.9304 13.4586 17.511 12 17.511ZM9.99996 12C9.99996 10.8932 10.8954 9.99601 12 9.99601C13.1045 9.99601 14 10.8932 14 12C14 13.1068 13.1045 14.004 12 14.004C10.8954 14.004 9.99996 13.1068 9.99996 12Z" fill="white"/>
</svg>
