<svg width="40" height="40" viewBox="0 0 40 40" fill="none" xmlns="http://www.w3.org/2000/svg">
<rect width="40" height="40" rx="8" fill="#1890FF" fill-opacity="0.1"/>
<path fill-rule="evenodd" clip-rule="evenodd" d="M27 15H14C13.4477 15 13 14.5523 13 14C13 13.4477 13.4477 13 14 13H27C27 11.8954 26.1046 11 25 11H14C12.3431 11 11 12.3431 11 14V27C11 28.1046 11.8954 29 13 29H27C28.1046 29 29 28.1046 29 27V17C29 15.8954 28.1046 15 27 15ZM13 27V17H27V19H20C19.4477 19 19 19.4477 19 20V24C19 24.5523 19.4477 25 20 25H27V27H13ZM23 22.5V21.5C23 21.2239 22.7761 21 22.5 21H21.5C21.2239 21 21 21.2239 21 21.5V22.5C21 22.7761 21.2239 23 21.5 23H22.5C22.7761 23 23 22.7761 23 22.5Z" fill="#2B63C0"/>
</svg>
