<svg width="40" height="40" viewBox="0 0 40 40" fill="none" xmlns="http://www.w3.org/2000/svg">
<path fill-rule="evenodd" clip-rule="evenodd" d="M27.71 23.71L26.88 22.88C26.3172 22.3179 26.0007 21.5554 26 20.76V18C26 16.7018 25.5789 15.4386 24.8 14.4L23.9 13.2C23.3334 12.4446 22.4443 12 21.5 12H21V10.5C21 10.2239 20.7761 10 20.5 10H19.5C19.2239 10 19 10.2239 19 10.5V12H18.5C17.5557 12 16.6666 12.4446 16.1 13.2L15.2 14.4C14.4211 15.4386 14 16.7018 14 18V20.76C13.9993 21.5554 13.6828 22.3179 13.12 22.88L12.29 23.71C12.1053 23.8963 12.0011 24.1477 12 24.41V25C12 25.5523 12.4477 26 13 26H27C27.5523 26 28 25.5523 28 25V24.41C27.9989 24.1477 27.8947 23.8963 27.71 23.71ZM24 24H16V18C16 17.1345 16.2807 16.2924 16.8 15.6L17.7 14.4C17.8889 14.1482 18.1852 14 18.5 14H21.5C21.8148 14 22.1111 14.1482 22.3 14.4L23.2 15.6C23.7193 16.2924 24 17.1345 24 18V24ZM20 30C21.1046 30 22 29.1046 22 28H18C18 29.1046 18.8954 30 20 30Z" fill="#2B63C0"/>
</svg>
