<svg width="64" height="88" viewBox="0 0 64 88" fill="none" xmlns="http://www.w3.org/2000/svg">
<rect width="64" height="88" fill="white"/>
<path fill-rule="evenodd" clip-rule="evenodd" d="M41 39C41 41.2 39.2 43 37 43C36.5 43 35.9 42.9 35.5 42.7L33.8 44.4L35 45.6L35.5 45.1C35.7 44.9 36 44.9 36.2 45.1L40.7 49.6C40.9 49.8 41 50 41 50.3V51.5C41 51.8 40.9 52 40.7 52.2L40.2 52.7C40 52.9 39.8 53 39.5 53H38.3C38 53 37.8 52.9 37.6 52.7L33.1 48.2C32.9 48 32.9 47.7 33.1 47.5L33.6 47L26.8 40.2L25.2 39.3C24.9 39.2 24.6 39 24.5 38.6L23.1 36.6C23 36.4 23 36.2 23.2 36L24 35.2C24.2 35 24.4 35 24.6 35.1L26.7 36.4C27 36.6 27.2 36.9 27.3 37.2L28.2 38.8L31.6 42.3L33.3 40.6C33.1 40.1 33 39.5 33 39C33 36.8 34.8 35 37 35H37.3C37.5 35 37.6 35 37.7 35.1L37.9 35.3C38.1 35.5 38.1 35.8 37.9 36L36.3 37.6C36.1 37.8 36.1 38.1 36.3 38.3L37.7 39.7C37.9 39.9 38.2 39.9 38.4 39.7L40 38.1C40.2 38 40.5 38 40.7 38.1L40.9 38.3C40.9 38.35 40.925 38.425 40.95 38.5C40.975 38.575 41 38.65 41 38.7V39ZM23 51.3C23 51 23.1 50.8 23.3 50.6L29 44.9L31.1 47L25.4 52.7C25.2 52.9 25 53 24.7 53H24.5C24.3 53 24 52.9 23.8 52.7L23.3 52.2C23.1 52 23 51.8 23 51.5V51.3Z" fill="#333333"/>
</svg>
